<?xml version="1.0" encoding="utf-8"?>
<!-- Generator: Adobe Illustrator 24.1.2, SVG Export Plug-In . SVG Version: 6.00 Build 0)  -->
<svg version="1.1" id="Layer_1" xmlns="http://www.w3.org/2000/svg" xmlns:xlink="http://www.w3.org/1999/xlink" x="0px" y="0px"
	 viewBox="0 0 1057.8 566.9" style="enable-background:new 0 0 1057.8 566.9;" xml:space="preserve">
<style type="text/css">
	.st0{fill:#FF0012;}
	.st1{fill:#FFFFFF;stroke:#000000;stroke-miterlimit:10;}
</style>
<g>
	<g>
		<polygon class="st0" points="314.1,207 286.9,192.5 278.5,188.1 250.6,173.3 250,173 225,159.8 222.4,158.4 194.8,173 113,216.3 
			113,245.6 194.1,202.6 222.4,187.6 225,189 250.6,202.6 250.9,202.8 286.9,221.8 314.1,236.2 314.1,329.7 286.9,344.2 251,363.2 
			251,363.2 250.6,363.4 250.6,392.6 286.9,373.4 314.1,359 337.5,346.6 337.5,219.4 		"/>
		<polygon class="st0" points="286.9,251.8 250.6,232.5 250.6,330.3 286.9,311.1 		"/>
		<polyline class="st0" points="225,377.4 113,318 113,348.3 225,407.6 		"/>
		<polygon class="st0" points="113,275.9 113,290 219.8,346.6 225,349.4 225,216.5 222.7,217.7 		"/>
	</g>
	<g>
		<path class="st1" d="M432.7,215.6h42.6c27.6,0,39.9,16.4,39.9,38.7c0,24.9-16.6,37.3-41.9,37.3h-14.6v36.1h-25.9L432.7,215.6z
			 M469.7,268.3c11.5,0,18.1-5.5,18.1-14.7c0-8.4-5.9-14.7-17.7-14.7h-11.5v29.4H469.7z"/>
		<path class="st1" d="M574.2,249c0.2,0,0.6,0,0.8,0.1v26.6c-2.2-0.2-4.5-0.2-5.8-0.2c-11.7,0-17.7,7.4-17.7,17.5v34.6h-24.6v-77.1
			h24.6v10.3h0.3C557.7,253.1,565.7,249,574.2,249L574.2,249z"/>
		<path class="st1" d="M621.2,329.1c-24.8,0-41.7-16.6-41.7-40s16.9-40.1,41.7-40.1c24.5,0,41.6,16.4,41.6,40.1
			C662.8,312.8,645.7,329.2,621.2,329.1L621.2,329.1z M621.2,307.2c9.4,0,16.7-7.5,16.7-18.1c0-10.7-7.1-18.1-16.7-18.1
			c-9.9,0-16.8,7.6-16.8,18.1C604.4,299.4,611.5,307.2,621.2,307.2L621.2,307.2z"/>
		<path class="st1" d="M722.2,249c19.9,0,35.2,16.6,35.2,40.1c0,23.9-15.2,40-36.3,40c-8.9,0-15.8-3.2-20.8-9h-0.4v38.7h-24.6V250.5
			H700v8.3h0.3C705.8,252.3,713.5,249,722.2,249L722.2,249z M716,307.4c9.6,0,16.5-7.3,16.5-18.2c0-11-7.2-18.3-16.6-18.3
			c-9.9,0-16.9,7.7-16.9,18.3C699,300.2,706.3,307.4,716,307.4L716,307.4z"/>
		<path class="st1" d="M817.9,249.1v26.6c-2.2-0.2-4.5-0.2-5.8-0.2c-11.7,0-17.7,7.4-17.7,17.5v34.6h-24.6v-77.1h24.6v10.3h0.3
			c5.9-7.7,13.9-11.8,22.3-11.8C817.3,249,817.7,249,817.9,249.1z"/>
		<path class="st1" d="M900,288.3c0,2.2-0.4,5.6-0.6,7.3h-52.5c1.8,8.7,9.4,13.3,18.2,13.3c7.2,0,13.4-3.2,18.7-9.3l13.1,14.7
			c-6.5,8.2-18.4,14.7-34.4,14.7c-22.9,0-40.1-16.2-40.1-40c0-23.4,16.6-40,39.2-40C884.1,249,900,265.4,900,288.3L900,288.3z
			 M847,281l28.9-0.2c-1.6-7.5-6.6-12.1-14-12.1S848.6,273,847,281z"/>
		<path class="st1" d="M906.3,317.7l11.7-16.6c6.5,6.1,13,8.8,20.3,8.8c4.5,0,6.9-1.5,6.9-4.3c0-2-2.4-3.6-11.9-6.5
			c-12.9-4-24.1-10.5-24.1-25.7c0-15,12.7-24.3,29-24.3c11.4,0,20.1,3.2,29,9.8l-11.7,17.6c-5.5-5.4-12.2-8.1-17.4-8.1
			c-2.2,0-5.5,0.8-5.5,3.9c0,1.9,2.8,3.8,10.1,6.5c17,6.2,26.3,10.2,26.3,25.5c0,14.3-10,24.9-31,24.9
			C926,329.2,915.1,325.4,906.3,317.7z"/>
		<path class="st1" d="M975.1,317.7l11.7-16.6c6.5,6.1,13,8.8,20.3,8.8c4.5,0,6.9-1.5,6.9-4.3c0-2-2.4-3.6-11.9-6.5
			c-12.9-4-24.1-10.5-24.1-25.7c0-15,12.7-24.3,29-24.3c11.4,0,20.1,3.2,29,9.8l-11.7,17.6c-5.5-5.4-12.2-8.1-17.4-8.1
			c-2.2,0-5.5,0.8-5.5,3.9c0,1.9,2.8,3.8,10.1,6.5c17,6.2,26.3,10.2,26.3,25.5c0,14.3-10,24.9-31,24.9
			C994.7,329.2,983.9,325.4,975.1,317.7z"/>
	</g>
	<g>
		<path class="st1" d="M460,349.5v25h-3.1v-19.1h-0.1l-8.1,14.1h-2.1l-8.1-14.1h-0.1v19.1h-3.1v-25h3.1l9.2,16.1h0.1l9.1-16.1H460z"
			/>
		<path class="st1" d="M487.9,366.8h-13.1c0.4,3.2,2.6,5.2,5.7,5.2c2.1,0,3.8-1,4.8-2.3l2,1.7c-1.5,1.9-3.8,3.2-6.9,3.2
			c-4.9,0-8.5-3.5-8.5-8.8c0-5.2,3.6-8.8,8.2-8.8c4.8,0,8,3.6,8,8.5C488,366.1,487.9,366.7,487.9,366.8z M480.2,359.8
			c-2.7,0-4.8,1.8-5.3,4.7h10.3C484.7,361.7,482.9,359.8,480.2,359.8L480.2,359.8z"/>
		<path class="st1" d="M515.4,348.6v25.9h-2.7v-2.7h-0.1c-1.4,1.8-3.4,2.9-5.9,2.9c-4.7,0-8.4-3.4-8.4-8.7c0-5.1,3.5-8.9,8.4-8.9
			c2.3,0,4.4,1,5.8,2.7h0.1v-11.3h2.8V348.6z M512.6,366.1c0-3.5-2.4-6.3-5.6-6.3c-3.3,0-5.8,2.5-5.8,6.3c0,3.4,2.3,6,5.8,6
			C509.9,372.1,512.6,369.7,512.6,366.1z"/>
		<path class="st1" d="M527.5,352.2c0-1.1,0.9-2,2-2s2,0.9,2,2s-0.9,2-2,2S527.5,353.3,527.5,352.2z M528.1,357.4h2.8v17.1h-2.8
			V357.4z"/>
		<path class="st1" d="M559.8,357.4v17.1h-2.7v-2.7H557c-1.4,1.8-3.5,2.9-6,2.9c-4.7,0-8.4-3.4-8.4-8.7c0-5.1,3.5-8.9,8.4-8.9
			c2.3,0,4.4,1,5.9,2.7h0.1v-2.5h2.8V357.4z M557,366.1c0-3.5-2.4-6.3-5.7-6.3s-5.8,2.5-5.8,6.3c0,3.4,2.3,6,5.8,6
			C554.4,372.1,557,369.7,557,366.1z"/>
	</g>
</g>
</svg>
