<?xml version="1.0" encoding="utf-8"?>
<!-- Generator: Adobe Illustrator 23.0.5, SVG Export Plug-In . SVG Version: 6.00 Build 0)  -->
<svg version="1.1" id="Layer_1" xmlns="http://www.w3.org/2000/svg" xmlns:xlink="http://www.w3.org/1999/xlink" x="0px" y="0px"
	 viewBox="0 0 963.8 566.9" style="enable-background:new 0 0 963.8 566.9;" xml:space="preserve">
<style type="text/css">
	.st0{fill:#F90000;}
	.st1{fill:#FFFFFF;}
</style>
<g>
	<polygon class="st0" points="234.4,216.4 208.6,202.8 200.7,198.6 174.2,184.6 173.6,184.3 150,171.8 147.5,170.4 121.4,184.3 
		43.9,225.3 43.9,253 120.7,212.3 147.5,198.1 150,199.4 174.2,212.3 174.6,212.5 208.6,230.5 234.4,244.2 234.4,332.7 208.6,346.4 
		174.6,364.4 174.6,364.4 174.2,364.6 174.2,392.3 208.6,374.1 234.4,360.4 256.6,348.6 256.6,228.2 	"/>
	<polygon class="st0" points="208.6,258.9 174.2,240.6 174.2,333.2 208.6,315 	"/>
	<polyline class="st0" points="150,377.9 43.9,321.6 43.9,350.3 150,406.4 	"/>
	<polygon class="st0" points="43.9,281.7 43.9,295.1 145.1,348.7 150,351.3 150,225.5 147.8,226.6 	"/>
</g>
<g>
	<path class="st1" d="M346.7,224.6H387c26.2,0,37.8,15.5,37.8,36.6c0,23.6-15.8,35.3-39.7,35.3h-13.9v34.2h-24.6V224.6H346.7z
		 M381.8,274.5c10.9,0,17.1-5.3,17.1-13.9c0-7.9-5.5-13.9-16.8-13.9h-10.9v27.9h10.6V274.5z"/>
	<path class="st1" d="M480.7,256.2c0.2,0,0.6,0,0.8,0.1v25.2c-2.1-0.1-4.3-0.1-5.5-0.1c-11.1,0-16.8,7-16.8,16.6v32.8H436v-73.1
		h23.3v9.8h0.3C465.1,260.1,472.7,256.2,480.7,256.2L480.7,256.2z"/>
	<path class="st1" d="M525.2,332.2c-23.5,0-39.5-15.8-39.5-37.9s16-38,39.5-38c23.2,0,39.4,15.5,39.4,38
		C564.6,316.6,548.4,332.2,525.2,332.2L525.2,332.2z M541.1,294.2c0-10.1-6.7-17.1-15.8-17.1c-9.4,0-15.9,7.2-15.9,17.1
		c0,9.8,6.7,17.1,15.9,17.1C534.1,311.4,541.1,304.2,541.1,294.2z"/>
	<path class="st1" d="M654.2,294.2c0,22.6-14.4,37.9-34.4,37.9c-8.4,0-15-3.1-19.7-8.5h-0.4v36.7h-23.3V257.6h23.4v7.9h0.3
		c5.2-6.1,12.5-9.3,20.8-9.3C639.8,256.2,654.2,271.9,654.2,294.2z M630.6,294.3c0-10.4-6.8-17.4-15.7-17.4c-9.3,0-16,7.3-16,17.4
		c0,10.4,6.9,17.2,16.1,17.2C624.1,311.5,630.6,304.6,630.6,294.3z"/>
	<path class="st1" d="M710.8,256.2c0.2,0,0.6,0,0.8,0.1v25.2c-2.1-0.1-4.3-0.1-5.5-0.1c-11.1,0-16.8,7-16.8,16.6v32.8H666v-73.1
		h23.3v9.8h0.3C695.2,260.1,702.7,256.2,710.8,256.2L710.8,256.2z"/>
	<path class="st1" d="M789.3,293.5c0,2-0.4,5.3-0.6,6.9H739c1.7,8.2,8.9,12.6,17.3,12.6c6.8,0,12.7-3,17.7-8.8l12.4,13.9
		c-6.2,7.8-17.4,13.9-32.6,13.9c-21.7,0-38-15.3-38-37.9c0-22.2,15.7-37.9,37.1-37.9C774.2,256.2,789.3,271.8,789.3,293.5
		L789.3,293.5z M739.1,286.5l27.3-0.1c-1.5-7.1-6.3-11.4-13.3-11.4S740.6,279,739.1,286.5z"/>
	<path class="st1" d="M795.3,321.3l11.1-15.7c6.1,5.8,12.3,8.3,19.2,8.3c4.2,0,6.6-1.5,6.6-4.1c0-1.9-2.3-3.4-11.2-6.2
		c-12.2-3.8-22.8-9.9-22.8-24.4c0-14.2,12-23,27.4-23c10.8,0,19,3,27.5,9.3L842,282.2c-5.2-5.1-11.5-7.7-16.5-7.7
		c-2,0-5.2,0.8-5.2,3.7c0,1.8,2.7,3.6,9.6,6.1c16.1,5.8,24.9,9.6,24.9,24.1c0,13.6-9.5,23.6-29.4,23.6
		C813.9,332.2,803.6,328.6,795.3,321.3z"/>
	<path class="st1" d="M860.4,321.3l11.1-15.7c6.1,5.8,12.3,8.3,19.2,8.3c4.2,0,6.6-1.5,6.6-4.1c0-1.9-2.3-3.4-11.2-6.2
		c-12.2-3.8-22.8-9.9-22.8-24.4c0-14.2,12-23,27.4-23c10.8,0,19,3,27.5,9.3L907,282.2c-5.2-5.1-11.5-7.7-16.5-7.7
		c-2,0-5.2,0.8-5.2,3.7c0,1.8,2.7,3.6,9.6,6.1c16.1,5.8,24.9,9.6,24.9,24.1c0,13.6-9.5,23.6-29.4,23.6
		C879,332.2,868.7,328.6,860.4,321.3z"/>
</g>
<g>
	<path class="st1" d="M372.5,351.5v23.6h-2.9V357l0,0l-7.7,13.3h-2l-7.7-13.3l0,0v18.1h-2.9v-23.6h2.9l8.7,15.3h0.1l8.6-15.3H372.5z
		"/>
	<path class="st1" d="M399,367.9h-12.4c0.3,3,2.5,5,5.4,5c2,0,3.6-0.9,4.6-2.2l1.9,1.6c-1.4,1.8-3.6,3-6.5,3c-4.6,0-8-3.4-8-8.3
		s3.4-8.3,7.7-8.3c4.5,0,7.5,3.4,7.5,8C399.1,367.2,399,367.8,399,367.9z M386.6,365.6h9.8c-0.4-2.6-2.1-4.4-4.7-4.4
		C389.1,361.2,387.1,362.9,386.6,365.6z"/>
	<path class="st1" d="M425,350.6v24.5h-2.6v-2.6l0,0c-1.3,1.7-3.2,2.8-5.6,2.8c-4.5,0-7.9-3.2-7.9-8.2c0-4.8,3.3-8.4,7.9-8.4
		c2.2,0,4.2,0.9,5.5,2.6l0,0v-10.7L425,350.6L425,350.6z M422.4,367.1c0-3.3-2.3-5.9-5.3-5.9c-3.1,0-5.5,2.3-5.5,5.9
		c0,3.3,2.2,5.7,5.5,5.7C419.9,372.8,422.4,370.5,422.4,367.1z"/>
	<path class="st1" d="M436.5,354c0-1.1,0.8-1.9,1.9-1.9s1.9,0.8,1.9,1.9c0,1-0.9,1.9-1.9,1.9C437.3,355.9,436.5,355.1,436.5,354z
		 M437.1,358.9h2.7v16.2h-2.7V358.9z"/>
	<path class="st1" d="M467.1,358.9v16.2h-2.6v-2.6l0,0c-1.3,1.7-3.3,2.8-5.7,2.8c-4.5,0-7.9-3.2-7.9-8.2c0-4.8,3.3-8.4,7.9-8.4
		c2.2,0,4.2,0.9,5.5,2.6h0.1v-2.4H467.1z M464.5,367.1c0-3.3-2.3-5.9-5.4-5.9s-5.5,2.3-5.5,5.9c0,3.3,2.2,5.7,5.5,5.7
		C461.9,372.8,464.5,370.5,464.5,367.1z"/>
</g>
</svg>
