<?xml version="1.0" encoding="utf-8"?>
<!-- Generator: Adobe Illustrator 23.0.5, SVG Export Plug-In . SVG Version: 6.00 Build 0)  -->
<svg version="1.1" id="Layer_1" xmlns="http://www.w3.org/2000/svg" xmlns:xlink="http://www.w3.org/1999/xlink" x="0px" y="0px"
	 viewBox="0 0 838.2 236.8" style="enable-background:new 0 0 838.2 236.8;" xml:space="preserve">
<style type="text/css">
	.st0{fill:#FF0012;}
	.st1{fill:#2D3335;}
	.st2{fill:#727272;}
</style>
<g>
	<g>
		<polygon class="st0" points="182.3,46.2 157.6,32.4 150,28.2 124.7,14.2 124.2,13.9 101.5,1.3 99.2,0 74.1,13.9 0,55 0,82.8 
			73.5,42 99.2,27.7 101.5,29.1 124.7,42 125,42.2 157.6,60.2 182.3,73.9 182.3,162.7 157.6,176.5 125.1,194.6 125.1,194.6 
			124.7,194.8 124.7,222.5 157.6,204.3 182.3,190.6 203.5,178.8 203.5,58 		"/>
		<polygon class="st0" points="157.6,88.7 124.7,70.4 124.7,163.3 157.6,145.1 		"/>
		<polyline class="st0" points="101.5,208.1 0,151.6 0,180.4 101.5,236.8 		"/>
		<polygon class="st0" points="0,111.6 0,125 96.8,178.8 101.5,181.5 101.5,55.2 99.4,56.3 		"/>
	</g>
	<g>
		<path class="st1" d="M289.8,54.3h38.6c25,0,36.2,15.6,36.2,36.8c0,23.7-15,35.4-38,35.4h-13.2v34.3h-23.5L289.8,54.3z
			 M323.3,104.4c10.4,0,16.4-5.2,16.4-14c0-8-5.3-14-16-14h-10.4v27.9H323.3z"/>
		<path class="st1" d="M418,86.1c0.2,0,0.5,0,0.7,0.1v25.3c-2-0.2-4.1-0.2-5.3-0.2c-10.6,0-16,7-16,16.6v32.9h-22.3V87.5h22.3v9.8
			h0.3C403.1,90,410.3,86.1,418,86.1L418,86.1z"/>
		<path class="st1" d="M460.6,162.2c-22.5,0-37.8-15.8-37.8-38s15.3-38.1,37.8-38.1c22.2,0,37.7,15.6,37.7,38.1
			S482.8,162.3,460.6,162.2L460.6,162.2z M460.6,141.4c8.5,0,15.1-7.1,15.1-17.2c0-10.2-6.4-17.2-15.1-17.2c-9,0-15.2,7.2-15.2,17.2
			C445.4,134,451.8,141.4,460.6,141.4L460.6,141.4z"/>
		<path class="st1" d="M552.2,86.1c18,0,31.9,15.8,31.9,38.1c0,22.7-13.8,38-32.9,38c-8.1,0-14.3-3-18.9-8.6h-0.4v36.8h-22.3V87.5
			H532v7.9h0.3C537.3,89.2,544.3,86.1,552.2,86.1L552.2,86.1z M546.5,141.6c8.7,0,15-6.9,15-17.3c0-10.5-6.5-17.4-15-17.4
			c-9,0-15.3,7.3-15.3,17.4C531.1,134.7,537.7,141.6,546.5,141.6L546.5,141.6z"/>
		<path class="st1" d="M638.9,86.2v25.3c-2-0.2-4.1-0.2-5.3-0.2c-10.6,0-16,7-16,16.6v32.9h-22.3V87.5h22.3v9.8h0.3
			c5.3-7.3,12.6-11.2,20.2-11.2C638.3,86.1,638.7,86.1,638.9,86.2z"/>
		<path class="st1" d="M713.3,123.4c0,2.1-0.4,5.3-0.5,6.9h-47.6c1.6,8.3,8.5,12.6,16.5,12.6c6.5,0,12.1-3,16.9-8.8l11.9,14
			c-5.9,7.8-16.7,14-31.2,14c-20.8,0-36.3-15.4-36.3-38c0-22.2,15-38,35.5-38C698.9,86.1,713.3,101.7,713.3,123.4L713.3,123.4z
			 M665.3,116.5l26.2-0.2c-1.5-7.1-6-11.5-12.7-11.5S666.7,108.9,665.3,116.5z"/>
		<path class="st1" d="M719,151.3l10.6-15.8c5.9,5.8,11.8,8.4,18.4,8.4c4.1,0,6.3-1.4,6.3-4.1c0-1.9-2.2-3.4-10.8-6.2
			c-11.7-3.8-21.8-10-21.8-24.4c0-14.3,11.5-23.1,26.3-23.1c10.3,0,18.2,3,26.3,9.3l-10.6,16.7c-5-5.1-11.1-7.7-15.8-7.7
			c-2,0-5,0.8-5,3.7c0,1.8,2.5,3.6,9.2,6.2c15.4,5.9,23.8,9.7,23.8,24.2c0,13.6-9.1,23.7-28.1,23.7C736.9,162.3,727,158.7,719,151.3
			z"/>
		<path class="st1" d="M781.4,151.3l10.6-15.8c5.9,5.8,11.8,8.4,18.4,8.4c4.1,0,6.3-1.4,6.3-4.1c0-1.9-2.2-3.4-10.8-6.2
			c-11.7-3.8-21.8-10-21.8-24.4c0-14.3,11.5-23.1,26.3-23.1c10.3,0,18.2,3,26.3,9.3L826,112.2c-5-5.1-11.1-7.7-15.8-7.7
			c-2,0-5,0.8-5,3.7c0,1.8,2.5,3.6,9.2,6.2c15.4,5.9,23.8,9.7,23.8,24.2c0,13.6-9.1,23.7-28.1,23.7
			C799.1,162.3,789.3,158.7,781.4,151.3z"/>
	</g>
	<g>
		<path class="st2" d="M314.5,181.6v23.8h-2.8v-18.1h-0.1l-7.3,13.4h-1.9l-7.3-13.4h-0.1v18.1h-2.8v-23.8h2.8l8.3,15.3h0.1l8.2-15.3
			H314.5z"/>
		<path class="st2" d="M339.8,198h-11.9c0.4,3,2.4,4.9,5.2,4.9c1.9,0,3.4-1,4.4-2.2l1.8,1.6c-1.4,1.8-3.4,3-6.3,3
			c-4.4,0-7.7-3.3-7.7-8.4c0-4.9,3.3-8.4,7.4-8.4c4.4,0,7.3,3.4,7.3,8.1C339.9,197.3,339.8,197.9,339.8,198z M332.8,191.3
			c-2.4,0-4.4,1.7-4.8,4.5h9.3C336.9,193.1,335.3,191.3,332.8,191.3L332.8,191.3z"/>
		<path class="st2" d="M364.7,180.7v24.6h-2.4v-2.6h-0.1c-1.3,1.7-3.1,2.8-5.3,2.8c-4.3,0-7.6-3.2-7.6-8.3c0-4.8,3.2-8.5,7.6-8.5
			c2.1,0,4,1,5.3,2.6h0.1v-10.7L364.7,180.7L364.7,180.7L364.7,180.7z M362.2,197.3c0-3.3-2.2-6-5.1-6c-3,0-5.3,2.4-5.3,6
			c0,3.2,2.1,5.7,5.3,5.7C359.7,203,362.2,200.7,362.2,197.3z"/>
		<path class="st2" d="M375.7,184.1c0-1,0.8-1.9,1.8-1.9s1.8,0.9,1.8,1.9s-0.8,1.9-1.8,1.9S375.7,185.2,375.7,184.1z M376.2,189.1
			h2.5v16.2h-2.5V189.1z"/>
		<path class="st2" d="M405,189.1v16.2h-2.4v-2.6h-0.1c-1.3,1.7-3.2,2.8-5.4,2.8c-4.3,0-7.6-3.2-7.6-8.3c0-4.8,3.2-8.5,7.6-8.5
			c2.1,0,4,1,5.3,2.6h0.1V189L405,189.1L405,189.1L405,189.1z M402.4,197.3c0-3.3-2.2-6-5.2-6s-5.3,2.4-5.3,6c0,3.2,2.1,5.7,5.3,5.7
			C400.1,203,402.4,200.7,402.4,197.3z"/>
	</g>
</g>
</svg>
