<?xml version="1.0" standalone="no"?>
<!DOCTYPE svg PUBLIC "-//W3C//DTD SVG 20010904//EN"
 "http://www.w3.org/TR/2001/REC-SVG-20010904/DTD/svg10.dtd">
<svg version="1.0" xmlns="http://www.w3.org/2000/svg"
 width="1957.000000pt" height="1957.000000pt" viewBox="0 0 1957.000000 1957.000000"
 preserveAspectRatio="xMidYMid meet">
<metadata>
Created by potrace 1.11, written by Peter Selinger 2001-2013
</metadata>
<g transform="translate(0.000000,1957.000000) scale(0.100000,-0.100000)"
fill="#000000" stroke="none">
<path d="M9495 19502 c-27 -15 -104 -56 -170 -91 -176 -94 -218 -116 -467
-250 -67 -35 -419 -222 -648 -344 -52 -27 -117 -62 -145 -77 -27 -15 -88 -48
-135 -72 -180 -95 -311 -165 -485 -258 -38 -21 -115 -61 -170 -90 -55 -29
-131 -70 -170 -90 -38 -21 -115 -61 -170 -90 -55 -29 -127 -67 -160 -85 -33
-18 -114 -61 -180 -96 -66 -35 -151 -80 -190 -101 -38 -21 -90 -48 -115 -60
-25 -12 -88 -45 -140 -73 -52 -29 -162 -87 -245 -130 -82 -43 -154 -81 -160
-85 -5 -4 -68 -38 -140 -75 -176 -92 -286 -150 -370 -195 -71 -38 -151 -81
-325 -173 -238 -125 -373 -197 -500 -265 -36 -19 -117 -62 -180 -95 -63 -34
-142 -76 -175 -94 -33 -18 -67 -35 -75 -39 -8 -3 -22 -9 -30 -14 -8 -5 -49
-27 -91 -49 -42 -22 -103 -54 -135 -72 -33 -17 -111 -59 -174 -92 -63 -33
-140 -73 -170 -89 -114 -62 -320 -171 -580 -308 -107 -57 -217 -115 -245 -130
-27 -15 -108 -58 -180 -95 -71 -37 -143 -76 -160 -85 -16 -10 -93 -50 -170
-90 -77 -40 -144 -76 -150 -80 -5 -4 -77 -42 -160 -85 -82 -43 -206 -108 -275
-145 -69 -37 -170 -91 -225 -120 -55 -29 -130 -69 -168 -89 l-67 -36 0 -1142
c0 -629 3 -1143 6 -1143 3 0 38 17 77 39 40 21 115 61 167 89 52 27 120 63
150 79 30 17 105 56 165 88 120 63 224 118 355 187 326 174 397 211 495 263
61 31 133 70 160 85 28 15 100 53 160 85 61 32 142 75 180 95 39 21 115 61
170 90 55 29 132 69 170 90 39 21 105 56 148 79 42 22 110 58 150 80 39 21
117 62 172 91 55 29 132 69 170 90 39 20 115 61 170 90 55 29 132 69 170 90
134 72 221 118 330 175 61 32 137 72 170 90 59 32 150 80 335 178 52 27 127
66 165 87 109 59 265 141 325 173 30 16 78 41 105 56 28 14 118 62 200 105 83
43 168 89 190 101 22 12 85 46 140 75 55 29 132 69 170 90 39 20 115 61 170
90 55 29 132 70 170 90 39 21 120 63 180 95 61 32 124 65 140 75 17 9 84 46
150 80 152 80 238 125 345 182 47 25 202 107 345 183 143 76 287 152 320 170
33 18 119 63 190 100 72 37 144 75 160 85 17 10 84 46 150 80 66 35 143 75
170 90 28 15 97 52 155 83 58 30 204 107 324 171 l219 116 61 -34 c34 -18 115
-61 181 -96 66 -34 134 -70 150 -80 17 -9 89 -48 160 -85 72 -37 186 -98 255
-135 69 -37 179 -95 245 -130 66 -35 143 -75 170 -90 28 -15 93 -50 145 -77
52 -28 201 -107 330 -175 326 -173 423 -224 595 -313 83 -43 164 -85 180 -95
29 -17 98 -53 330 -175 61 -32 128 -68 150 -80 22 -12 90 -48 150 -80 61 -32
144 -76 185 -98 41 -22 107 -56 145 -77 39 -20 108 -58 155 -82 47 -25 119
-64 160 -85 41 -22 104 -56 140 -75 36 -19 112 -60 170 -90 189 -100 263 -139
410 -218 80 -42 195 -103 255 -135 107 -56 177 -94 300 -160 33 -18 114 -60
180 -95 66 -34 134 -70 150 -80 17 -9 89 -48 160 -85 131 -68 379 -200 490
-260 33 -18 110 -58 170 -90 61 -32 142 -74 180 -95 148 -80 459 -244 680
-360 66 -35 124 -67 130 -72 7 -6 10 -1240 10 -3658 l0 -3649 -155 -82 c-85
-45 -182 -97 -215 -114 -156 -83 -218 -117 -320 -170 -60 -32 -137 -72 -170
-90 -33 -18 -109 -58 -170 -90 -60 -31 -123 -65 -140 -75 -16 -9 -86 -47 -155
-82 -211 -110 -320 -168 -440 -233 -63 -34 -128 -69 -145 -77 -16 -8 -57 -29
-90 -47 -33 -18 -91 -49 -130 -69 -38 -21 -119 -64 -180 -96 -60 -32 -148 -79
-195 -104 -47 -24 -116 -61 -155 -82 -93 -50 -198 -105 -320 -170 -55 -29
-131 -70 -170 -90 -138 -73 -241 -128 -327 -174 -137 -72 -258 -136 -323 -171
-33 -18 -118 -63 -190 -100 -71 -37 -134 -71 -140 -75 -5 -4 -55 -31 -110 -59
-55 -29 -136 -71 -180 -94 -44 -24 -138 -74 -210 -112 -180 -95 -297 -158
-319 -171 -19 -11 -19 -42 -20 -1144 -1 -622 2 -1137 6 -1143 4 -7 11 -8 20 0
7 5 76 43 153 83 77 40 165 86 195 103 30 16 89 47 130 69 88 46 201 106 320
170 47 25 135 71 195 103 61 32 133 70 160 85 28 15 104 56 170 90 66 35 154
81 195 103 138 73 244 130 315 167 39 21 111 59 160 85 50 26 122 64 160 85
39 21 120 64 180 95 61 32 137 73 170 90 33 18 105 56 160 85 55 29 125 66
155 83 30 16 98 52 150 80 168 87 304 159 355 187 28 15 100 53 160 85 61 32
137 72 170 90 67 36 183 98 355 188 63 33 146 78 183 99 38 21 71 38 73 38 2
0 62 31 132 68 70 38 170 92 222 119 175 93 424 225 520 276 52 27 127 67 165
87 74 39 157 83 500 265 39 20 135 71 215 113 80 41 150 78 155 82 6 4 66 37
135 73 69 35 145 76 170 89 25 14 102 55 173 92 l127 68 0 4972 0 4972 -52 27
c-82 41 -285 148 -368 194 -41 22 -120 64 -175 93 -55 29 -136 72 -180 95 -44
23 -125 66 -180 95 -55 29 -113 60 -130 70 -16 9 -93 50 -170 90 -77 40 -162
85 -190 100 -27 15 -95 51 -150 80 -55 29 -136 72 -180 95 -44 23 -125 66
-180 95 -111 58 -219 116 -310 165 -33 18 -114 61 -180 95 -66 34 -142 75
-170 90 -27 15 -95 51 -150 80 -55 29 -131 70 -170 90 -38 21 -115 61 -170 90
-247 130 -348 184 -480 255 -33 18 -109 58 -170 90 -60 32 -141 74 -180 95
-38 21 -106 57 -150 80 -151 80 -250 133 -310 165 -63 34 -163 87 -330 175
-55 29 -131 70 -170 90 -38 20 -115 61 -170 90 -55 29 -165 88 -245 130 -80
43 -194 103 -255 135 -60 32 -132 70 -160 85 -27 15 -108 58 -180 95 -71 37
-152 80 -180 95 -27 15 -95 51 -150 80 -155 82 -264 139 -340 180 -38 21 -167
88 -285 150 -118 62 -237 125 -265 140 -50 28 -120 65 -315 167 -58 31 -133
71 -167 89 -35 18 -140 75 -235 125 -95 50 -204 108 -243 129 -66 35 -129 69
-332 176 -49 26 -115 61 -148 79 -187 100 -443 235 -446 234 -2 0 -26 -12 -54
-27z"/>
<path d="M9735 14971 c-11 -10 -14 -11 -570 -306 -132 -70 -277 -147 -322
-171 -46 -24 -122 -65 -170 -90 -49 -26 -124 -66 -168 -89 -44 -23 -197 -105
-340 -180 -143 -76 -296 -157 -340 -180 -44 -23 -125 -66 -180 -95 -55 -29
-122 -65 -150 -80 -27 -15 -108 -58 -180 -95 -71 -37 -152 -80 -180 -95 -27
-15 -90 -49 -140 -75 -49 -26 -121 -64 -160 -85 -38 -21 -119 -63 -180 -95
-60 -32 -132 -70 -160 -85 -49 -27 -150 -81 -335 -178 -52 -27 -129 -67 -170
-89 -41 -22 -115 -62 -165 -88 -49 -26 -121 -64 -160 -85 -38 -20 -113 -60
-165 -87 -52 -28 -131 -70 -175 -93 -44 -23 -136 -72 -205 -108 -69 -36 -151
-80 -183 -98 -32 -19 -60 -34 -63 -34 -2 0 -62 -31 -132 -68 -70 -38 -176 -95
-237 -127 -60 -32 -141 -75 -180 -95 -38 -21 -124 -66 -190 -100 -66 -35 -151
-80 -188 -102 -38 -21 -71 -38 -74 -38 -3 0 -66 -33 -141 -74 -76 -40 -191
-102 -257 -136 -66 -35 -142 -75 -170 -90 -27 -15 -95 -51 -150 -80 -55 -29
-127 -67 -160 -85 -33 -18 -118 -63 -190 -100 -71 -37 -134 -71 -140 -75 -5
-4 -82 -44 -170 -90 -88 -46 -182 -95 -210 -110 -121 -65 -229 -122 -480 -255
-49 -26 -121 -64 -160 -85 -38 -20 -115 -61 -170 -90 -55 -29 -136 -72 -180
-96 -44 -23 -127 -67 -185 -98 l-105 -55 0 -556 0 -556 90 -48 c116 -61 291
-153 380 -201 123 -65 237 -126 350 -185 61 -31 124 -65 140 -75 17 -9 89 -48
160 -85 72 -37 157 -82 190 -100 58 -31 152 -81 340 -180 175 -92 261 -138
310 -165 28 -15 104 -56 170 -90 66 -34 143 -75 170 -90 28 -15 100 -53 160
-85 146 -77 226 -119 505 -267 237 -126 356 -189 530 -281 52 -27 122 -64 155
-82 33 -18 101 -54 150 -80 50 -26 126 -67 170 -90 44 -23 125 -66 180 -95 55
-29 132 -69 170 -90 39 -21 111 -59 160 -85 50 -26 122 -64 160 -85 39 -21
115 -61 170 -90 55 -29 123 -65 150 -80 28 -15 109 -58 180 -95 72 -37 153
-80 180 -95 28 -15 86 -46 130 -69 44 -23 112 -59 150 -80 39 -20 124 -66 190
-100 211 -112 289 -153 350 -186 33 -18 110 -58 170 -90 61 -32 143 -75 183
-96 153 -82 220 -118 317 -169 147 -77 261 -138 340 -180 109 -59 210 -112
340 -181 66 -35 161 -85 210 -111 50 -27 119 -63 155 -81 36 -18 67 -34 70
-37 3 -3 32 -19 65 -36 73 -38 234 -123 330 -174 39 -20 124 -66 190 -100 66
-35 148 -78 183 -97 34 -18 64 -33 65 -33 1 0 2 2338 2 5195 0 3648 -3 5195
-10 5195 -6 0 -15 -4 -20 -9z"/>
<path d="M11759 13718 c-5 -83 -2 -7613 3 -7621 5 -9 21 -4 55 14 27 15 93 50
148 79 55 29 172 91 260 138 88 46 198 105 245 130 47 24 117 62 155 82 39 21
108 58 155 82 241 127 290 153 345 183 33 18 101 54 150 80 96 51 210 111 340
180 44 23 121 64 170 90 50 26 128 68 175 92 47 25 128 68 180 96 52 28 118
62 145 77 28 15 104 56 170 90 66 35 125 67 131 71 8 6 11 664 11 2327 l0
2319 -46 24 c-25 13 -134 71 -241 128 -189 100 -280 148 -480 254 -52 27 -131
69 -175 92 -108 58 -537 285 -655 348 -52 27 -131 69 -175 92 -44 24 -150 80
-235 125 -85 45 -193 103 -240 127 -47 25 -121 65 -165 88 -77 41 -106 56
-327 174 -63 33 -98 47 -99 39z"/>
<path d="M1000 5861 c0 -931 3 -1181 13 -1188 6 -6 75 -43 152 -83 77 -40 163
-85 190 -100 28 -15 109 -58 180 -95 72 -37 153 -80 180 -95 28 -15 100 -53
160 -85 61 -32 133 -70 160 -85 28 -15 104 -56 170 -90 66 -34 134 -70 150
-80 17 -10 89 -48 160 -85 194 -101 314 -164 370 -195 54 -29 179 -96 340
-180 268 -140 314 -164 360 -190 68 -37 312 -167 480 -254 39 -20 106 -56 150
-79 44 -24 139 -74 210 -111 72 -38 157 -83 190 -101 33 -18 105 -56 160 -85
55 -29 132 -69 170 -90 117 -63 215 -115 325 -173 58 -30 137 -71 175 -92 39
-20 122 -64 185 -97 63 -34 135 -72 160 -86 25 -13 108 -57 185 -98 77 -40
160 -84 185 -98 25 -13 77 -40 115 -60 39 -19 108 -56 155 -81 102 -56 291
-156 380 -203 94 -48 93 -48 115 -59 11 -5 49 -26 85 -45 64 -35 167 -90 330
-176 235 -124 277 -146 305 -162 17 -9 93 -50 170 -90 77 -40 172 -89 210
-110 39 -20 115 -61 170 -90 55 -29 132 -70 170 -90 39 -21 120 -64 180 -95
61 -32 133 -70 160 -85 28 -15 104 -56 170 -90 66 -34 143 -75 170 -90 28 -15
95 -51 150 -80 55 -29 132 -69 170 -90 39 -21 120 -63 180 -95 61 -32 133 -71
162 -86 35 -19 53 -24 55 -16 2 7 4 538 4 1180 l-1 1168 -85 45 c-47 25 -141
75 -210 111 -69 36 -181 96 -250 133 -69 37 -179 95 -245 130 -66 34 -157 82
-202 106 -46 24 -120 64 -165 88 -205 108 -266 140 -313 166 -27 15 -104 56
-170 90 -66 34 -151 79 -190 100 -38 20 -110 59 -160 85 -49 26 -117 62 -150
80 -33 18 -109 58 -170 90 -142 74 -262 138 -350 185 -38 21 -115 61 -170 90
-158 83 -245 130 -320 170 -38 21 -119 63 -180 95 -60 32 -137 72 -170 90 -33
18 -98 53 -145 77 -87 46 -702 372 -865 458 -49 26 -130 69 -180 95 -49 26
-112 60 -140 75 -27 15 -96 52 -153 81 -56 30 -124 65 -150 79 -26 14 -113 60
-194 103 -82 43 -167 88 -190 101 -24 12 -92 49 -153 81 -60 32 -137 72 -170
90 -33 18 -103 55 -155 82 -52 28 -135 72 -185 98 -49 26 -133 70 -185 97 -52
28 -117 63 -145 78 -27 15 -104 56 -170 90 -66 35 -151 80 -190 100 -38 21
-110 59 -160 85 -49 26 -121 65 -160 85 -38 21 -108 58 -155 82 -47 25 -202
107 -345 183 -143 75 -303 160 -355 187 -52 28 -122 65 -155 83 -33 18 -107
57 -165 88 -96 50 -142 74 -328 173 -35 19 -66 34 -68 34 -2 0 -4 -530 -4
-1179z"/>
</g>
</svg>
